#!OML:ASF E:\CV Data\Top Level 1\Subject 1\Session 1\player.ASF
:FULLY-SPECIFIED
:DEGREES
1464
root 6.99589 17.8127 -2.39779 13.4949 -9.48208 -0.692502
lowerback 5.59931 7.50365 5.72349
upperback -1.75201 10.6306 4.26091
thorax -4.72972 5.152 0.287374
lowerneck -9.05716 -13.3462 -16.5169
upperneck 1.99413 -16.7442 12.9559
head 4.52646 -8.00972 5.14934
rclavicle 1.91231e-013 5.08889e-014
rhumerus 43.1653 -20.3537 -108.57
rradius 23.1317
rwrist -43.4798
rhand -22.1146 -8.64289
rfingers 7.12502
rthumb 4.29811 -38.5793
lclavicle 1.91231e-013 5.08889e-014
lhumerus -33.6115 -3.54359 89.3916
lradius 57.5912
lwrist 26.5175
lhand -22.1828 17.2382
lfingers 7.12502
lthumb 4.23225 47.1759
rfemur -5.24545 -16.8276 18.3538
rtibia 27.3124
rfoot -18.5501 -33.2756
rtoes -1.26677
lfemur -26.6947 -4.62647 -21.8907
ltibia 17.564
lfoot -2.01841 -24.3091
ltoes 17.6703
1465
root 6.99159 17.814 -2.3879 13.5578 -9.49625 -0.735567
lowerback 5.55509 7.45742 5.63087
upperback -1.72824 10.5532 4.18601
thorax -4.68312 5.11756 0.273717
lowerneck -9.12613 -13.3329 -16.5137
upperneck 2.07026 -16.7216 12.9527
head 4.55702 -7.99621 5.14499
rclavicle -5.40694e-014 -3.65764e-014
rhumerus 42.786 -20.3264 -108.433
rradius 23.0222
rwrist -43.2843
rhand -22.1687 -8.64237
rfingers 7.12502
rthumb 4.2459 -38.5798
lclavicle -5.40694e-014 -3.65764e-014
lhumerus -33.6186 -3.5783 89.4099
lradius 57.5443
lwrist 26.4917
lhand -22.2862 17.2896
lfingers 7.12502
lthumb 4.1324 47.2292
rfemur -5.23665 -16.8234 18.4332
rtibia 27.2235
rfoot -18.5845 -33.3401
rtoes -1.34777
lfemur -26.7419 -4.64718 -21.8146
ltibia 17.6152
lfoot -2.06608 -24.2813
ltoes 17.7353
1466
root 6.9879 17.815 -2.37803 13.6132 -9.51991 -0.778787
lowerback 5.51537 7.41983 5.54761
upperback -1.71431 10.4891 4.10672
thorax -4.64665 5.08885 0.248353
lowerneck -9.1343 -13.3212 -16.5189
upperneck 2.13146 -16.7099 12.9615
head 4.5768 -7.99002 5.14791
rclavicle -7.11649e-014 -9.54166e-015
rhumerus 42.3442 -20.2824 -108.208
rradius 22.9789
rwrist -43.2019
rhand -22.2522 -8.68028
rfingers 7.12502
rthumb 4.16523 -38.6193
lclavicle -7.11649e-014 -9.54166e-015
lhumerus -33.6408 -3.66013 89.4402
lradius 57.5082
lwrist 26.4365
lhand -22.3602 17.3096
lfingers 7.12502
lthumb 4.06091 47.2506
rfemur -5.21838 -16.801 18.5038
rtibia 27.1324
rfoot -18.6103 -33.3988
rtoes -1.42838
lfemur -26.7821 -4.67818 -21.7387
ltibia 17.6693
lfoot -2.12355 -24.2321
ltoes 17.7982
1467
root 6.98411 17.8159 -2.36898 13.6653 -9.53881 -0.815785
lowerback 5.48558 7.38087 5.45624
upperback -1.70478 10.4242 4.0292
thorax -4.6222 5.05953 0.227235
lowerneck -9.13128 -13.3109 -16.5076
upperneck 2.1783 -16.7005 12.9476
head 4.58712 -7.98614 5.14242
rclavicle 7.55382e-014 3.18055e-014
rhumerus 41.8765 -20.2282 -107.944
rradius 22.9697
rwrist -43.1464
rhand -22.3126 -8.72081
rfingers 7.12502
rthumb 4.10692 -38.661
lclavicle 7.55382e-014 3.18055e-014
lhumerus -33.6538 -3.75102 89.4758
lradius 57.4679
lwrist 26.3355
lhand -22.3827 17.3047
lfingers 7.12502
lthumb 4.03917 47.2461
rfemur -5.19838 -16.7658 18.5693
rtibia 27.0435
rfoot -18.6326 -33.461
rtoes -1.50823
lfemur -26.8211 -4.70594 -21.6703
ltibia 17.7206
lfoot -2.17913 -24.1934
ltoes 17.9071
1468
root 6.98031 17.8166 -2.36012 13.7081 -9.56525 -0.849631
lowerback 5.46978 7.34181 5.35786
upperback -1.70687 10.3611 3.95671
thorax -4.62001 5.03062 0.21177
lowerneck -9.0865 -13.2929 -16.5179
upperneck 2.21791 -16.6858 12.9498
head 4.59123 -7.98086 5.14819
rclavicle 8.38871e-014 1.59028e-014
rhumerus 41.3625 -20.1775 -107.653
rradius 22.9912
rwrist -43.0788
rhand -22.364 -8.7667
rfingers 7.12502
rthumb 4.05725 -38.7078
lclavicle 8.38871e-014 1.59028e-014
lhumerus -33.6816 -3.84855 89.5191
lradius 57.4255
lwrist 26.204
lhand -22.3497 17.2543
lfingers 7.12502
lthumb 4.07104 47.1952
rfemur -5.17034 -16.7131 18.6256
rtibia 26.9608
rfoot -18.6507 -33.5188
rtoes -1.59049
lfemur -26.8479 -4.72634 -21.6082
ltibia 17.7667
lfoot -2.23579 -24.1547
ltoes 17.9882
1469
root 6.97666 17.8172 -2.35189 13.7522 -9.59502 -0.87576
lowerback 5.46351 7.30254 5.25115
upperback -1.7218 10.2991 3.8831
thorax -4.63787 5.00174 0.197091
lowerneck -9.02955 -13.2707 -16.5345
upperneck 2.26815 -16.6679 12.9576
head 4.59732 -7.97435 5.15741
rclavicle -8.18993e-014 4.77083e-014
rhumerus 40.8219 -20.1489 -107.356
rradius 23.0242
rwrist -42.9423
rhand -22.3891 -8.7756
rfingers 7.12502
rthumb 4.03308 -38.7172
lclavicle -8.18993e-014 4.77083e-014
lhumerus -33.7137 -3.9547 89.5654
lradius 57.3763
lwrist 26.0523
lhand -22.2724 17.1251
lfingers 7.12502
lthumb 4.14575 47.0645
rfemur -5.15151 -16.6517 18.672
rtibia 26.8892
rfoot -18.6644 -33.5699
rtoes -1.67361
lfemur -26.8749 -4.74643 -21.5535
ltibia 17.8038
lfoot -2.28086 -24.1163
ltoes 18.0363
1470
root 6.97302 17.8178 -2.34481 13.8039 -9.62339 -0.896138
lowerback 5.46307 7.25871 5.13301
upperback -1.74649 10.2317 3.81357
thorax -4.67208 4.97007 0.191351
lowerneck -8.97359 -13.2461 -16.5475
upperneck 2.32354 -16.6461 12.9505
head 4.60276 -7.96637 5.162
rclavicle 1.57835e-013 5.88403e-014
rhumerus 40.2484 -20.1008 -107.023
rradius 23.071
rwrist -42.7988
rhand -22.4211 -8.74652
rfingers 7.12502
rthumb 4.00218 -38.6887
lclavicle 1.57835e-013 5.88403e-014
lhumerus -33.7478 -4.05819 89.6174
lradius 57.3286
lwrist 25.8945
lhand -22.1951 16.9861
lfingers 7.12502
lthumb 4.22037 46.924
rfemur -5.15088 -16.5869 18.7156
rtibia 26.8309
rfoot -18.6741 -33.6155
rtoes -1.75518
lfemur -26.9116 -4.7527 -21.5079
ltibia 17.8319
lfoot -2.31532 -24.0974
ltoes 18.083
1471
root 6.9696 17.8185 -2.33836 13.8582 -9.65663 -0.910569
lowerback 5.46291 7.21055 5.00496
upperback -1.77142 10.1581 3.75028
thorax -4.7096 4.93569 0.197596
lowerneck -8.95008 -13.2211 -16.5729
upperneck 2.41368 -16.6198 12.9408
head 4.62413 -7.95513 5.16534
rclavicle -2.06736e-014 -7.95139e-015
rhumerus 39.6596 -20.0427 -106.681
rradius 23.1242
rwrist -42.6297
rhand -22.4769 -8.67115
rfingers 7.12502
rthumb 3.9483 -38.6143
lclavicle -2.06736e-014 -7.95139e-015
lhumerus -33.7682 -4.15006 89.678
lradius 57.2741
lwrist 25.7449
lhand -22.1231 16.8206
lfingers 7.12502
lthumb 4.2899 46.7572
rfemur -5.163 -16.5193 18.7504
rtibia 26.7878
rfoot -18.688 -33.6474
rtoes -1.82252
lfemur -26.9495 -4.75323 -21.47
ltibia 17.8494
lfoot -2.34021 -24.0832
ltoes 18.127
1472
root 6.96631 17.8193 -2.33262 13.9159 -9.68874 -0.918544
lowerback 5.45851 7.15768 4.86767
upperback -1.79538 10.0774 3.69248
thorax -4.7463 4.89828 0.215557
lowerneck -8.95142 -13.1993 -16.5875
upperneck 2.52176 -16.5942 12.9053
head 4.65157 -7.94413 5.15735
rclavicle -1.12512e-013 -1.27222e-014
rhumerus 39.0532 -19.9696 -106.325
rradius 23.1953
rwrist -42.4789
rhand -22.5976 -8.56064
rfingers 7.12502
rthumb 3.83166 -38.5059
lclavicle -1.12512e-013 -1.27222e-014
lhumerus -33.7809 -4.24272 89.7469
lradius 57.2265
lwrist 25.623
lhand -22.0709 16.6679
lfingers 7.12502
lthumb 4.34026 46.6034
rfemur -5.18803 -16.456 18.7786
rtibia 26.7577
rfoot -18.6986 -33.6694
rtoes -1.88388
lfemur -26.9909 -4.74718 -21.4412
ltibia 17.8579
lfoot -2.3589 -24.0804
ltoes 18.169
1473
root 6.96315 17.8203 -2.32713 13.9708 -9.72489 -0.921747
lowerback 5.44914 7.10526 4.72703
upperback -1.81881 9.99665 3.63675
thorax -4.7804 4.86112 0.238271
lowerneck -8.95146 -13.1794 -16.5876
upperneck 2.63355 -16.5716 12.8514
head 4.67738 -7.93519 5.14134
rclavicle 7.95139e-015 -1.74931e-014
rhumerus 38.4275 -19.8991 -105.96
rradius 23.2864
rwrist -42.3723
rhand -22.789 -8.43745
rfingers 7.12502
rthumb 3.64687 -38.386
lclavicle 7.95139e-015 -1.74931e-014
lhumerus -33.7905 -4.34513 89.8229
lradius 57.1806
lwrist 25.5288
lhand -22.0385 16.5456
lfingers 7.12502
lthumb 4.37162 46.4805
rfemur -5.217 -16.3981 18.798
rtibia 26.7382
rfoot -18.7005 -33.6806
rtoes -1.95881
lfemur -27.0269 -4.74021 -21.4182
ltibia 17.8583
lfoot -2.37403 -24.0769
ltoes 18.2486
1474
root 6.96021 17.8211 -2.32131 14.0151 -9.7702 -0.921391
lowerback 5.43302 7.05506 4.58499
upperback -1.83472 9.9177 3.58252
thorax -4.80306 4.82534 0.264736
lowerneck -8.95914 -13.1609 -16.5896
upperneck 2.75605 -16.5509 12.8034
head 4.70876 -7.92668 5.12645
rclavicle 1.74931e-014 4.77083e-014
rhumerus 37.7832 -19.8134 -105.571
rradius 23.4049
rwrist -42.3716
rhand -23.0714 -8.34961
rfingers 7.12502
rthumb 3.3741 -38.3027
lclavicle 1.74931e-014 4.77083e-014
lhumerus -33.7925 -4.46235 89.903
lradius 57.1401
lwrist 25.476
lhand -22.0123 16.4355
lfingers 7.12502
lthumb 4.39694 46.3699
rfemur -5.23834 -16.3465 18.8047
rtibia 26.7255
rfoot -18.6928 -33.6805
rtoes -2.05331
lfemur -27.0472 -4.7372 -21.3985
ltibia 17.8534
lfoot -2.3916 -24.0636
ltoes 18.2994
1475
root 6.95756 17.8218 -2.315 14.0475 -9.8263 -0.919045
lowerback 5.4141 7.00992 4.44711
upperback -1.85113 9.84549 3.52695
thorax -4.82342 4.79282 0.287619
lowerneck -8.93547 -13.1433 -16.5699
upperneck 2.86484 -16.5366 12.7404
head 4.72863 -7.92288 5.10527
rclavicle 5.40694e-014 2.06736e-014
rhumerus 37.1192 -19.7438 -105.171
rradius 23.528
rwrist -42.4249
rhand -23.3639 -8.2751
rfingers 7.12502
rthumb 3.09167 -38.2324
lclavicle 5.40694e-014 2.06736e-014
lhumerus -33.7976 -4.58894 89.9813
lradius 57.0937
lwrist 25.4471
lhand -21.9561 16.3269
lfingers 7.12502
lthumb 4.45115 46.2601
rfemur -5.25059 -16.3031 18.7998
rtibia 26.7178
rfoot -18.668 -33.6726
rtoes -2.18339
lfemur -27.0496 -4.73991 -21.3803
ltibia 17.844
lfoot -2.41822 -24.0372
ltoes 18.3022
1476
root 6.95532 17.8225 -2.30799 14.0672 -9.89889 -0.921618
lowerback 5.39303 6.969 4.31878
upperback -1.86489 9.77925 3.47293
thorax -4.83825 4.76314 0.307196
lowerneck -8.88767 -13.1215 -16.5658
upperneck 2.97243 -16.5209 12.7064
head 4.7483 -7.91844 5.09669
rclavicle 3.02153e-014 -1.59028e-014
rhumerus 36.4428 -19.689 -104.765
rradius 23.6493
rwrist -42.5178
rhand -23.6396 -8.21708
rfingers 7.12502
rthumb 2.82545 -38.1781
lclavicle 3.02153e-014 -1.59028e-014
lhumerus -33.8058 -4.71748 90.0557
lradius 57.0461
lwrist 25.4447
lhand -21.8546 16.2078
lfingers 7.12502
lthumb 4.54917 46.139
rfemur -5.25204 -16.2659 18.7876
rtibia 26.7146
rfoot -18.625 -33.6561
rtoes -2.34966
lfemur -27.0305 -4.74724 -21.3568
ltibia 17.8306
lfoot -2.45696 -23.9894
ltoes 18.2217
